<svg width="1279" height="184" viewBox="0 0 1279 184" fill="none" xmlns="http://www.w3.org/2000/svg">
<path d="M0 89.7621L30.4651 95.0753C60.9301 100.789 121.683 110.814 182.968 116.528C243.632 121.841 304.651 121.841 365.048 100.489C426.333 78.7349 487.619 36.6308 548.016 14.877C609.035 -6.47575 669.699 -6.47576 730.984 25.6035C791.737 57.6828 852.667 121.841 913.952 116.528C974.438 110.814 1035.63 36.6308 1096.03 14.877C1157.23 -6.47575 1217.71 25.6035 1248.8 41.6432L1279 57.6828V186H1248.53C1218.07 186 1157.32 186 1096.03 186C1035.37 186 974.349 186 913.952 186C852.667 186 791.381 186 730.984 186C669.965 186 609.301 186 548.016 186C487.263 186 426.333 186 365.048 186C304.562 186 243.365 186 182.968 186C121.771 186 61.2854 186 30.1986 186H0V89.7621Z" fill="#EA615D"/>
</svg>
