<svg width="1280" height="191" viewBox="0 0 1280 191" fill="none" xmlns="http://www.w3.org/2000/svg">
<path d="M-8 5.98762L34.9333 21.4053C77.8667 36.823 163.733 67.6584 249.6 72.7655C335.467 78.2581 421.333 57.0587 507.2 36.823C593.067 16.5873 678.933 -4.61205 764.8 0.880501C850.667 5.98761 936.533 36.823 1022.4 57.3478C1108.27 78.2581 1194.13 87.8941 1237.07 93.3867L1280 98.4938V191H1237.07C1194.13 191 1108.27 191 1022.4 191C936.533 191 850.667 191 764.8 191C678.933 191 593.067 191 507.2 191C421.333 191 335.467 191 249.6 191C163.733 191 77.8667 191 34.9333 191H-8V5.98762Z" fill="#FFF9F2"/>
</svg>
